<svg width="561" height="704" viewBox="0 0 561 704" fill="none" xmlns="http://www.w3.org/2000/svg">
<circle cx="38" cy="14" r="2" fill="#D9C9B7"/>
<circle cx="228" cy="161" r="2" fill="#D9C9B7"/>
<circle cx="132.5" cy="251.5" r="1.5" fill="#D9C9B7"/>
<circle cx="387.5" cy="114.5" r="1.5" fill="#D9C9B7"/>
<circle cx="138.5" cy="586.5" r="1.5" fill="#D9C9B7"/>
<circle cx="468.5" cy="237.5" r="1.5" fill="#D9C9B7"/>
<circle cx="468.5" cy="494.5" r="1.5" fill="#D9C9B7"/>
<circle cx="1.5" cy="188.5" r="1.5" fill="#D9C9B7"/>
<circle cx="62.5" cy="445.5" r="1.5" fill="#D9C9B7"/>
<circle cx="362.5" cy="545.5" r="1.5" fill="#D9C9B7"/>
<circle cx="325.5" cy="455.5" r="1.5" fill="#D9C9B7"/>
<circle cx="403.5" cy="702.5" r="1.5" fill="#D9C9B7"/>
<circle cx="194.5" cy="309.5" r="1.5" fill="#D9C9B7"/>
<circle cx="500.5" cy="1.5" r="1.5" fill="#D9C9B7"/>
<circle cx="559.5" cy="337.5" r="1.5" fill="#D9C9B7"/>
<circle cx="519.5" cy="612.5" r="1.5" fill="#D9C9B7"/>
<circle cx="91.5" cy="52.5" r="0.5" fill="#D9C9B7"/>
<circle cx="81.5" cy="344.5" r="0.5" fill="#D9C9B7"/>
<circle cx="61.5" cy="537.5" r="0.5" fill="#D9C9B7"/>
<circle cx="406.5" cy="48.5" r="0.5" fill="#D9C9B7"/>
<circle cx="405.5" cy="344.5" r="0.5" fill="#D9C9B7"/>
<circle cx="502.5" cy="571.5" r="0.5" fill="#D9C9B7"/>
<circle cx="262.5" cy="290.5" r="0.5" fill="#D9C9B7"/>
<circle cx="323.5" cy="196.5" r="0.5" fill="#D9C9B7"/>
<circle cx="130.5" cy="438.5" r="0.5" fill="#D9C9B7"/>
<circle cx="246.5" cy="477.5" r="0.5" fill="#D9C9B7"/>
<circle cx="42.5" cy="63.5" r="0.5" fill="#D9C9B7"/>
<circle cx="87.5" cy="379.5" r="0.5" fill="#D9C9B7"/>
<circle cx="42.5" cy="650.5" r="0.5" fill="#D9C9B7"/>
<circle cx="262.5" cy="62.5" r="0.5" fill="#D9C9B7"/>
<circle cx="302.5" cy="391.5" r="0.5" fill="#D9C9B7"/>
<circle cx="326.5" cy="650.5" r="0.5" fill="#D9C9B7"/>
<circle cx="176.5" cy="91.5" r="0.5" fill="#D9C9B7"/>
<circle cx="176.5" cy="403.5" r="0.5" fill="#D9C9B7"/>
<circle cx="136.5" cy="678.5" r="0.5" fill="#D9C9B7"/>
<circle cx="247.5" cy="606.5" r="0.5" fill="#D9C9B7"/>
<circle cx="490.5" cy="91.5" r="0.5" fill="#D9C9B7"/>
<circle cx="490.5" cy="403.5" r="0.5" fill="#D9C9B7"/>
<circle cx="490.5" cy="678.5" r="0.5" fill="#D9C9B7"/>
<circle cx="220.5" cy="7.5" r="0.5" fill="#D9C9B7"/>
<circle cx="238.5" cy="365.5" r="0.5" fill="#D9C9B7"/>
</svg>
