<svg width="26" height="25" viewBox="0 0 26 25" fill="none" xmlns="http://www.w3.org/2000/svg">
<path d="M25.9091 10.92C25.9091 5.29569 20.2707 0.718506 13.3393 0.718506C6.40795 0.718506 0.76944 5.29451 0.76944 10.92C0.76944 15.9628 5.24147 20.1854 11.2877 20.9843C11.6966 21.073 12.2544 21.2538 12.395 21.6048C12.4929 21.976 12.5066 22.3644 12.4352 22.7417C12.4352 22.7417 12.2874 23.6292 12.2555 23.8183C12.2012 24.1362 12.0026 25.0616 13.344 24.4955C16.9874 22.5781 20.3176 20.1174 23.2205 17.1978C24.8999 15.5351 25.8645 13.2828 25.9091 10.92ZM8.90389 13.923C8.90389 13.9878 8.87814 14.0501 8.83226 14.0959C8.78638 14.1418 8.72417 14.1676 8.65929 14.1676H5.13627C5.07318 14.1675 5.01258 14.1429 4.96726 14.0991C4.94521 14.0768 4.92781 14.0504 4.91605 14.0214C4.90428 13.9924 4.8984 13.9614 4.89873 13.9301V8.4535C4.89873 8.38862 4.92448 8.32641 4.97036 8.28053C5.01624 8.23465 5.07845 8.20887 5.14334 8.20887H6.02501C6.08989 8.20887 6.15211 8.23465 6.19798 8.28053C6.24386 8.32641 6.26961 8.38862 6.26961 8.4535V12.8038H8.6652C8.73008 12.8038 8.7923 12.8295 8.83818 12.8754C8.88406 12.9213 8.9098 12.9835 8.9098 13.0484L8.90389 13.923ZM11.0312 13.923C11.0312 13.9878 11.0054 14.0501 10.9595 14.0959C10.9136 14.1418 10.8514 14.1676 10.7865 14.1676H9.90494C9.84006 14.1676 9.77778 14.1418 9.7319 14.0959C9.68602 14.0501 9.66027 13.9878 9.66027 13.923V8.44523C9.66027 8.38034 9.68602 8.31813 9.7319 8.27225C9.77778 8.22637 9.84006 8.20059 9.90494 8.20059H10.7865C10.8514 8.20059 10.9136 8.22637 10.9595 8.27225C11.0054 8.31813 11.0312 8.38034 11.0312 8.44523V13.923ZM17.0998 13.923C17.0998 13.9878 17.074 14.0501 17.0282 14.0959C16.9823 14.1418 16.9201 14.1676 16.8552 14.1676H15.9735C15.9524 14.1677 15.9313 14.1649 15.9109 14.1593H15.8944H15.8872H15.8755H15.8637H15.8565L15.8412 14.1499C15.8167 14.1338 15.7955 14.1134 15.7785 14.0896L13.2648 10.6954V13.949C13.2648 14.0139 13.2391 14.0761 13.1932 14.1219C13.1473 14.1678 13.0851 14.1936 13.0202 14.1936H12.1385C12.0736 14.1936 12.0114 14.1678 11.9656 14.1219C11.9197 14.0761 11.8939 14.0139 11.8939 13.949V8.47123C11.8939 8.40635 11.9197 8.34413 11.9656 8.29826C12.0114 8.25238 12.0736 8.22659 12.1385 8.22659H13.0639H13.0781H13.0863H13.1006H13.1089H13.123H13.1301L13.1431 8.23368H13.1502L13.1632 8.24196H13.1691L13.1821 8.2526L13.1963 8.26796C13.2031 8.27581 13.2094 8.28409 13.2152 8.29277L15.7254 11.6822V8.42869C15.7254 8.36381 15.7511 8.30158 15.797 8.2557C15.8429 8.20982 15.9051 8.18405 15.97 8.18405H16.8517C16.9165 8.18405 16.9788 8.20982 17.0246 8.2557C17.0705 8.30158 17.0963 8.36381 17.0963 8.42869L17.0998 13.923ZM21.9689 9.32806C21.9689 9.39294 21.9431 9.45515 21.8973 9.50103C21.8514 9.54691 21.7892 9.57269 21.7243 9.57269H19.3275V10.498H21.7231C21.788 10.498 21.8502 10.5238 21.8961 10.5697C21.942 10.6156 21.9677 10.6778 21.9677 10.7427V11.6243C21.9677 11.6892 21.942 11.7514 21.8961 11.7973C21.8502 11.8432 21.788 11.869 21.7231 11.869H19.3275V12.7943H21.7231C21.788 12.7943 21.8502 12.8201 21.8961 12.866C21.942 12.9118 21.9677 12.9741 21.9677 13.039V13.9206C21.9677 13.9855 21.942 14.0477 21.8961 14.0936C21.8502 14.1395 21.788 14.1652 21.7231 14.1652H18.2001C18.137 14.1653 18.0764 14.1407 18.0311 14.0967C17.9871 14.0514 17.9625 13.9908 17.9626 13.9277V8.45114C17.9622 8.3882 17.9864 8.32758 18.0299 8.28213C18.0755 8.23786 18.1366 8.21325 18.2001 8.21359H21.7231C21.788 8.21359 21.8502 8.23938 21.8961 8.28525C21.942 8.33113 21.9677 8.39335 21.9677 8.45823L21.9689 9.32806Z" fill="#AA8A65"/>
</svg>
