<svg width="22" height="17" viewBox="0 0 22 17" fill="none" xmlns="http://www.w3.org/2000/svg">
<path d="M19.6891 4.27414C19.7024 4.45497 19.7024 4.63581 19.7024 4.81831C19.7024 10.3791 15.196 16.7925 6.95573 16.7925V16.7891C4.52154 16.7925 2.13791 16.1375 0.0887146 14.9025C0.442666 14.9425 0.798392 14.9625 1.15501 14.9633C3.17226 14.965 5.13186 14.3291 6.71888 13.1583C4.80186 13.1241 3.12081 11.95 2.53355 10.2358C3.20509 10.3575 3.89702 10.3325 4.55614 10.1633C2.46613 9.76664 0.962505 8.04164 0.962505 6.03831C0.962505 6.01997 0.962505 6.00247 0.962505 5.98497C1.58525 6.31081 2.28251 6.49164 2.99573 6.51164C1.02726 5.27581 0.420489 2.81581 1.6092 0.892475C3.88372 3.52164 7.2396 5.11997 10.8421 5.28914C10.4811 3.82747 10.9743 2.29581 12.1382 1.26831C13.9425 -0.325025 16.7803 -0.243359 18.4765 1.45081C19.4798 1.26497 20.4414 0.919141 21.3214 0.429141C20.9869 1.40331 20.287 2.23081 19.352 2.75664C20.24 2.65831 21.1076 2.43497 21.9246 2.09414C21.3232 2.94081 20.5656 3.67831 19.6891 4.27414Z" fill="#AA8A65"/>
</svg>
